<svg xmlns="http://www.w3.org/2000/svg" width="24" height="24" fill="none"><path fill="#000" fill-rule="evenodd" d="M8.217 8.23C9.265 7.184 10.514 6.666 12 6.666c1.486 0 2.735.518 3.783 1.566s1.562 2.292 1.562 3.769c0 1.477-.514 2.721-1.562 3.77-1.048 1.047-2.297 1.565-3.783 1.565-1.486 0-2.735-.518-3.783-1.566S6.655 13.477 6.655 12c0-1.477.514-2.721 1.562-3.77ZM15.195 12 10 14.955V9.046L15.195 12Z" clip-rule="evenodd"/><path fill="#000" fill-rule="evenodd" d="M19.071 19.071C21.024 17.118 22 14.761 22 12s-.976-5.118-2.929-7.071C17.118 2.976 14.761 2 12.001 2c-2.762 0-5.12.976-7.072 2.929C2.976 6.882 2 9.239 2 12s.976 5.118 2.929 7.071C6.882 21.024 9.239 22 12 22s5.118-.976 7.071-2.929ZM12 5.335c-1.827 0-3.407.654-4.702 1.949C6.002 8.579 5.345 10.164 5.345 12c0 1.836.657 3.42 1.953 4.716 1.295 1.295 2.875 1.949 4.702 1.949 1.828 0 3.407-.654 4.702-1.949 1.296-1.295 1.953-2.88 1.953-4.716 0-1.836-.657-3.42-1.953-4.716C15.407 5.989 13.827 5.335 12 5.335Z" clip-rule="evenodd"/></svg>